<svg xmlns="http://www.w3.org/2000/svg" version="1.1" xmlns:xlink="http://www.w3.org/1999/xlink" xmlns:svgjs="http://svgjs.com/svgjs" width="1600" height="800" preserveAspectRatio="none" viewBox="0 0 1440 800">
    <g mask="url(&quot;#SvgjsMask1526&quot;)" fill="none">
        <rect width="1440" height="800" x="0" y="0" fill="url(#SvgjsLinearGradient1527)"></rect>
        <path d="M591.4,859.126C651.989,857.995,703.656,819.984,734.261,767.68C765.216,714.779,777.613,648.419,745.096,596.464C714.023,546.816,649.964,538.601,591.4,539.42C534.703,540.213,475.944,553.163,444.977,600.663C411.294,652.329,408.592,719.529,438.993,773.192C469.804,827.58,528.902,860.293,591.4,859.126" fill="rgba(6, 27, 49, 0.11)" class="triangle-float2"></path>
        <path d="M402.161,788.305C471.506,785.495,526.172,735.729,560.076,675.172C593.076,616.229,605.467,544.619,571.176,486.418C537.32,428.955,468.85,408.008,402.161,407.15C333.605,406.268,262.604,424.353,225.441,481.97C185.351,544.125,183.449,624.867,220.408,688.934C257.388,753.037,328.217,791.301,402.161,788.305" fill="rgba(6, 27, 49, 0.11)" class="triangle-float2"></path>
        <path d="M996.339,556.316C1040.906,555.376,1073.397,519.604,1095.916,481.133C1118.741,442.14,1134.409,396.044,1113.644,355.916C1091.446,313.017,1044.55,285.739,996.339,288.698C952.062,291.416,922.786,329.971,901.577,368.932C881.555,405.713,870.314,448.122,889.212,485.492C909.917,526.435,950.468,557.283,996.339,556.316" fill="rgba(6, 27, 49, 0.11)" class="triangle-float3"></path>
        <path d="M259.377,313.214C293.1,313.884,325.626,296.047,341.213,266.134C355.839,238.066,347.586,204.394,329.679,178.297C314.113,155.611,286.889,146.606,259.377,146.864C232.399,147.117,206.152,157.057,191.325,179.596C174.87,204.611,169.398,236.309,182.987,262.99C197.81,292.095,226.721,312.565,259.377,313.214" fill="rgba(6, 27, 49, 0.11)" class="triangle-float2"></path>
        <path d="M191.754,596.363C233.513,595.973,278.441,590.468,301.269,555.499C325.914,517.746,325.285,467.169,300.812,429.305C278.06,394.104,233.663,385.391,191.754,386.06C151.303,386.706,110.838,398.92,88.565,432.693C63.924,470.056,54.771,519.716,78.641,557.576C101.425,593.714,149.035,596.762,191.754,596.363" fill="rgba(6, 27, 49, 0.11)" class="triangle-float3"></path>
        <path d="M257.92,211.615C307.819,212.043,362.419,202.992,387.696,159.967C413.205,116.547,396.61,63.103,370.454,20.07C345.501,-20.984,305.836,-50.049,257.92,-53.546C202.651,-57.58,141.193,-46.334,112.816,1.265C83.97,49.651,99.953,111.406,131.94,157.776C159.733,198.066,208.976,211.196,257.92,211.615" fill="rgba(6, 27, 49, 0.11)" class="triangle-float2"></path>
        <path d="M1477.816,1019.873C1536.526,1017.627,1588.646,989.046,1621.908,940.615C1661.2,883.405,1697.07,810.976,1662.695,750.684C1628.144,690.085,1547.568,687.071,1477.816,687.89C1410.029,688.685,1336.108,697.371,1300.303,754.936C1262.958,814.975,1273.921,893.68,1313.278,952.42C1348.642,1005.2,1414.33,1022.301,1477.816,1019.873" fill="rgba(6, 27, 49, 0.11)" class="triangle-float1"></path>
        <path d="M663.984,878.311C736.409,876.808,807.404,852.456,847.527,792.141C892.455,724.603,909.626,637.96,871.498,566.363C831.337,490.948,749.317,443.158,663.984,447.482C584.688,451.5,528.717,516.403,489.953,585.695C452.347,652.918,427.376,733.842,466.75,800.045C505.502,865.202,588.19,879.884,663.984,878.311" fill="rgba(6, 27, 49, 0.11)" class="triangle-float1"></path>
    </g>
    <defs>
        <mask id="SvgjsMask1526">
            <rect width="1440" height="800" fill="#ffffff"></rect>
        </mask>
        <linearGradient x1="11.11%" y1="-20%" x2="88.89%" y2="120%" gradientUnits="userSpaceOnUse" id="SvgjsLinearGradient1527">
            <stop stop-color="rgba(173, 214, 203, 1)" offset="0"></stop>
            <stop stop-color="rgba(255, 255, 255, 1)" offset="1"></stop>
        </linearGradient>
        <style>
            @keyframes float1 {
                0%{transform: translate(0, 0)}
                50%{transform: translate(-10px, 0)}
                100%{transform: translate(0, 0)}
            }

            .triangle-float1 {
                animation: float1 5s infinite;
            }

            @keyframes float2 {
                0%{transform: translate(0, 0)}
                50%{transform: translate(-5px, -5px)}
                100%{transform: translate(0, 0)}
            }

            .triangle-float2 {
                animation: float2 4s infinite;
            }

            @keyframes float3 {
                0%{transform: translate(0, 0)}
                50%{transform: translate(0, -10px)}
                100%{transform: translate(0, 0)}
            }

            .triangle-float3 {
                animation: float3 6s infinite;
            }
        </style>
    </defs>
</svg>